<svg xmlns="http://www.w3.org/2000/svg" xmlns:xlink="http://www.w3.org/1999/xlink" width="55" height="98" viewBox="0 0 55 98">
  <metadata><?xpacket begin="﻿" id="W5M0MpCehiHzreSzNTczkc9d"?>
<x:xmpmeta xmlns:x="adobe:ns:meta/" x:xmptk="Adobe XMP Core 5.6-c138 79.159824, 2016/09/14-01:09:01        ">
   <rdf:RDF xmlns:rdf="http://www.w3.org/1999/02/22-rdf-syntax-ns#">
      <rdf:Description rdf:about=""/>
   </rdf:RDF>
</x:xmpmeta>
                                                                                                    
                                                                                                    
                                                                                                    
                                                                                                    
                                                                                                    
                                                                                                    
                                                                                                    
                                                                                                    
                                                                                                    
                                                                                                    
                                                                                                    
                                                                                                    
                                                                                                    
                                                                                                    
                                                                                                    
                                                                                                    
                                                                                                    
                                                                                                    
                                                                                                    
                                                                                                    
                           
<?xpacket end="w"?></metadata>
<defs>
    <style>
      .cls-1 {
        fill: #684fa3;
        filter: url(#filter);
      }

      .cls-1, .cls-2 {
        fill-rule: evenodd;
      }

      .cls-2 {
        fill: #fff;
      }
    </style>
    <filter id="filter" x="-1" y="-1" width="58" height="100" filterUnits="userSpaceOnUse">
      <feOffset result="offset" in="SourceAlpha"/>
      <feGaussianBlur result="blur" stdDeviation="1"/>
      <feFlood result="flood" flood-opacity="0.71"/>
      <feComposite result="composite" operator="in" in2="blur"/>
      <feBlend result="blend" in="SourceGraphic"/>
    </filter>
  </defs>
  <path class="cls-1" d="M0,85.464V0H55V96.266c-0.038.033-.076,0.067-0.115,0.1a2.438,2.438,0,0,1-2.811.336,4.224,4.224,0,0,1-1.182-.912,9.452,9.452,0,0,1-1.43-2.08,26.017,26.017,0,0,1-1.516-3.553c-0.452-1.274-.88-2.557-1.329-3.833a19.382,19.382,0,0,0-1.3-3,6.215,6.215,0,0,0-1.2-1.591,2.8,2.8,0,0,0-2.536-.744,7.118,7.118,0,0,0-1.357.414c-0.686.276-1.364,0.571-2.054,0.834a6.836,6.836,0,0,1-4.552.17,9.339,9.339,0,0,1-2.9-1.542c-0.654-.494-1.24-1.064-1.84-1.619a8.687,8.687,0,0,0-2.157-1.5,3.97,3.97,0,0,0-1.375-.4,2.686,2.686,0,0,0-1.954.63A6.171,6.171,0,0,0,22.271,79.2a32.961,32.961,0,0,0-3.61,6.408c-0.6,1.39-1.084,2.821-1.6,4.243-0.316.878-.649,1.751-0.988,2.62a4.17,4.17,0,0,1-.491,1.091,2.131,2.131,0,0,1-.331.393,0.528,0.528,0,0,1-.634-0.129,2.825,2.825,0,0,1-.355-0.338,3.328,3.328,0,0,1-.371-0.6,16.086,16.086,0,0,1-.649-1.524c-0.5-1.467-.97-2.943-1.448-4.417a28.149,28.149,0,0,0-1.021-2.83,7.045,7.045,0,0,0-.886-1.528A2.892,2.892,0,0,0,9.136,81.9,1.823,1.823,0,0,0,7.9,81.637a2.952,2.952,0,0,0-1.086.377q-0.614.357-1.2,0.761c-0.5.344-.984,0.714-1.48,1.065a10.06,10.06,0,0,1-2.179,1.222A5.379,5.379,0,0,1,0,85.464Z"/>
  <path class="cls-2" d="M45.006,25.066L39.9,30.18,28,18.273,16.1,30.18l-5.109-5.114L28,8.045Z"/>
  <path class="cls-2" d="M13.7,46.166a2.267,2.267,0,0,1,1.9-1.346c0.99-.1,1.428.546,1.783,1.359a1.033,1.033,0,0,0,.162-0.2,10,10,0,0,1,3.483-4.514,3.719,3.719,0,0,1,2.395-.778,1.144,1.144,0,0,1,1.214,1.056,5.317,5.317,0,0,1-.218,2.467c-0.374,1.319-.884,2.6-1.25,3.922a22.089,22.089,0,0,0-.722,3.436,24.765,24.765,0,0,0-.081,3.688,16.524,16.524,0,0,0,.79,4.51,2.977,2.977,0,0,1,.169,1.311,1.621,1.621,0,0,1-1.84,1.263,2.226,2.226,0,0,1-2.154-1.666,12.62,12.62,0,0,1-.651-4.606,18.515,18.515,0,0,1,1.142-5.045,4.935,4.935,0,0,0,.414-2.4,0.94,0.94,0,0,0-.365-0.673,0.858,0.858,0,0,0-.771.186,4.315,4.315,0,0,0-.783,1.258,17.007,17.007,0,0,0-.942,4.36c-0.183,1.64-.284,3.291-0.5,4.926a4.275,4.275,0,0,1-.6,1.57,1.255,1.255,0,0,1-1.528.686A1.571,1.571,0,0,1,13.7,59.41c0.092-1.09.24-2.179,0.425-3.257,0.265-1.548.587-3.087,0.879-4.631a0.937,0.937,0,0,0-.536-1.009,0.676,0.676,0,0,0-.6.1,3.7,3.7,0,0,0-.816,1.275,34.821,34.821,0,0,0-.729,3.68,31.6,31.6,0,0,1-.729,4.892,7.716,7.716,0,0,1-.687,1.632,1.513,1.513,0,0,1-1.8.711,1.362,1.362,0,0,1-1-1.519,13.2,13.2,0,0,1,.317-2.307c0.422-1.907.928-3.8,1.333-5.705a17.744,17.744,0,0,0,.355-4.534,5.423,5.423,0,0,0-.307-1.466,1,1,0,0,0-1.629-.561A4.075,4.075,0,0,0,6.623,48.56,28.448,28.448,0,0,0,4.814,54.5c-0.108.5-.158,1.017-0.242,1.525a1.858,1.858,0,0,1-1,1.35,0.856,0.856,0,0,1-1.283-.42A4.366,4.366,0,0,1,2,55.689a10.742,10.742,0,0,1,.7-4.077,28.258,28.258,0,0,1,3.247-7.2,9.213,9.213,0,0,1,2.68-2.877,3.313,3.313,0,0,1,2.515-.555,2.713,2.713,0,0,1,2.1,2.4,20.491,20.491,0,0,1,.226,2.043c0.025,0.237.056,0.474,0.085,0.711ZM36.3,42.6a5.736,5.736,0,0,1,2.352-1.609,2.61,2.61,0,0,1,1.111-.174,1.621,1.621,0,0,1,1.264,2.158,6.7,6.7,0,0,1-1.963,3.154c-0.285.288-.6,0.547-0.83,0.755,0.242,0.286.457,0.572,0.7,0.826,0.511,0.524.661,0.528,0.931-.157a13.3,13.3,0,0,0,.8-2.639,6.742,6.742,0,0,1,.766-2.231A11.235,11.235,0,0,1,45.225,38.5a4.387,4.387,0,0,1,1.163-.47,1.374,1.374,0,0,1,1.581.684,1.169,1.169,0,0,1-.282,1.568c-0.5.458-1.092,0.823-1.635,1.238-0.657.5-1.346,0.974-1.947,1.538a2.195,2.195,0,0,0-.691,1.718,0.837,0.837,0,0,0,1.219.81,2.621,2.621,0,0,0,.993-0.961c0.363-.653.572-1.39,0.882-2.076a6.118,6.118,0,0,1,.714-1.273,1.528,1.528,0,0,1,.831-0.535,0.984,0.984,0,0,1,1.188,1.4c-0.162.57-.416,1.113-0.59,1.68a0.912,0.912,0,0,0,.019.635,0.546,0.546,0,0,0,.8.261,4.142,4.142,0,0,0,.814-0.607c0.523-.521,1-1.092,1.528-1.606a0.7,0.7,0,0,1,.926-0.287,0.765,0.765,0,0,1,.185,1,6.231,6.231,0,0,1-1.437,2.3c-0.692.739-1.447,1.421-2.2,2.1a3.664,3.664,0,0,1-.91.548,1.587,1.587,0,0,1-2.329-.606c-0.273.31-.536,0.614-0.8,0.912A4.173,4.173,0,0,1,42.77,50a2.071,2.071,0,0,1-1.878-.6,3.881,3.881,0,0,0-.227.391,2.941,2.941,0,0,1-3.334,1.579,1.617,1.617,0,0,1-1.049-1.54,2.794,2.794,0,0,0-.113-0.7,1.365,1.365,0,0,0-.339-0.372,1.325,1.325,0,0,0-.346.374c-0.122.347-.163,0.722-0.276,1.072-0.187.577-.4,1.147-0.617,1.712a1.954,1.954,0,0,1-.33.536,0.59,0.59,0,0,1-1.052-.141c-0.141-.293-0.247-0.6-0.406-1-0.19.377-.326,0.672-0.483,0.954a4.86,4.86,0,0,1-1.909,2.112,1.627,1.627,0,0,1-.518.179,1.143,1.143,0,0,1-1.368-.727,1.347,1.347,0,0,0-.351-0.382,2.17,2.17,0,0,0-.339.352,8.331,8.331,0,0,1-1.979,2.549,2.311,2.311,0,0,1-.913.43,1.226,1.226,0,0,1-1.421-.75,3.593,3.593,0,0,1-.337-1.172,17.069,17.069,0,0,1,.966-6.732,3.105,3.105,0,0,1,.718-1.072,1.329,1.329,0,0,1,1.5-.415,1.5,1.5,0,0,1,.579,1.506c-0.142.7-.373,1.373-0.524,2.068a3.119,3.119,0,0,0-.065,1.05c0.055,0.415.258,0.482,0.493,0.154a6.715,6.715,0,0,0,.878-1.569A6.284,6.284,0,0,0,28,48.224c0.119-1.461.142-2.933,0.319-4.386a11.779,11.779,0,0,1,1.731-5.058,2.724,2.724,0,0,1,.161-0.226,1.523,1.523,0,0,1,1.61-.574,1.455,1.455,0,0,1,.874,1.386,5.418,5.418,0,0,1-.517,2.182c-0.423,1.138-.9,2.261-1.234,3.426a12.792,12.792,0,0,0-.3,2.389,0.869,0.869,0,0,0,.551.924,0.782,0.782,0,0,0,.955-0.379,4.063,4.063,0,0,0,.567-1.289c0.3-1.473.528-2.961,0.795-4.44a11.771,11.771,0,0,1,2.26-5.593,3.032,3.032,0,0,1,.77-0.666,1.165,1.165,0,0,1,1.763,1.023A4.445,4.445,0,0,1,37.787,39c-0.4.864-.843,1.7-1.246,2.566a9.987,9.987,0,0,0-.347.99ZM35.7,46.137a2.175,2.175,0,0,0,1.882-1.084,0.534,0.534,0,0,0,.03-0.484,0.565,0.565,0,0,0-.472-0.142A2.03,2.03,0,0,0,35.7,46.137ZM25.14,44.175a2.138,2.138,0,0,1,1.177-1.7,1.09,1.09,0,0,1,1.263.016,1.236,1.236,0,0,1,.444,1.244,2.017,2.017,0,0,1-1.7,1.7C25.577,45.558,25.132,45.157,25.14,44.175Z"/>
</svg>
